<!DOCTYPE svg PUBLIC "-//W3C//DTD SVG 1.1//EN" "http://www.w3.org/Graphics/SVG/1.1/DTD/svg11.dtd">
<!-- Uploaded to: SVG Repo, www.svgrepo.com, Transformed by: SVG Repo Mixer Tools -->
<svg fill="#e1c019" width="800px" height="800px" viewBox="0 0 24 24" xmlns="http://www.w3.org/2000/svg" stroke="#e1c019">
<g id="SVGRepo_bgCarrier" stroke-width="0"/>
<g id="SVGRepo_tracerCarrier" stroke-linecap="round" stroke-linejoin="round"/>
<g id="SVGRepo_iconCarrier"> <g data-name="Layer 2"> <g data-name="message-square"> <rect width="24" height="24" opacity="0"/> <path d="M19 3H5a3 3 0 0 0-3 3v15a1 1 0 0 0 .51.87A1 1 0 0 0 3 22a1 1 0 0 0 .51-.14L8 19.14a1 1 0 0 1 .55-.14H19a3 3 0 0 0 3-3V6a3 3 0 0 0-3-3zM8 12a1 1 0 1 1 1-1 1 1 0 0 1-1 1zm4 0a1 1 0 1 1 1-1 1 1 0 0 1-1 1zm4 0a1 1 0 1 1 1-1 1 1 0 0 1-1 1z"/> </g> </g> </g>
</svg>